<svg id="shape" xmlns="http://www.w3.org/2000/svg" viewBox="0 0 343.09 163.35"><defs><style>.cls-1{font-size:19.47px;font-family:TTNorms-Regular, TT Norms;letter-spacing:0.06em;}.cls-1,.cls-3,.cls-4{fill:#858585;}.cls-2{letter-spacing:0.02em;}.cls-3{stroke:#858585;stroke-width:2px;}.cls-3,.cls-5,.cls-8{stroke-miterlimit:10;}.cls-5,.cls-8{fill:none;stroke:#68a7dd;}.cls-5{stroke-width:0.11px;}.cls-6{fill:#00a688;}.cls-7{fill:#df8c37;}.cls-8{stroke-width:0.13px;}</style></defs><text class="cls-1" transform="translate(175.75 68.42)">B<tspan class="cls-2" x="14.21" y="0">L</tspan><tspan x="25.49" y="0">OG</tspan></text><path class="cls-3" d="M103.19,38.45H41.64a6.15,6.15,0,0,0-6.16,6.15v61.55a6.17,6.17,0,0,0,6.16,6.16H58.32c3.4,0,42.57-58.16,42.57-61.55l7.22-7.39C108.11,40,106.58,38.45,103.19,38.45ZM41.64,40.91h61.55a3.69,3.69,0,0,1,3.69,3.69l-3.58,3.69H37.94V44.6A3.7,3.7,0,0,1,41.64,40.91Zm16.22,68.93H41.64a3.7,3.7,0,0,1-3.7-3.69V50.76H99.12L88.26,66"/><path class="cls-4" d="M42.87,43.37h2.46v2.46H42.87Z"/><path class="cls-4" d="M47.79,43.37h2.46v2.46H47.79Z"/><path class="cls-4" d="M52.71,43.37h2.47v2.46H52.71Z"/><path class="cls-4" d="M54,74.52v4.7a1.23,1.23,0,0,0,1.23,1.23,1.24,1.24,0,0,0,.87-.36l4.57-4.57c7.9-.2,14.25-5.09,14.25-11.07S68.25,53.37,60.1,53.37s-14.77,5-14.77,11.08c0,4.4,3.35,8.28,8.62,10.07ZM60.1,55.83c6.79,0,12.31,3.87,12.31,8.62s-5.52,8.62-12.31,8.62a1.19,1.19,0,0,0-.87.36l-2.82,2.82V73.61a1.23,1.23,0,0,0-.9-1.18c-4.62-1.31-7.72-4.52-7.72-8,0-4.75,5.52-8.62,12.31-8.62Z"/><path class="cls-4" d="M51.48,60.76H68.72v2.46H51.48Z"/><path class="cls-4" d="M51.48,65.68H68.72v2.46H51.48Z"/><path class="cls-4" d="M42.87,82.76H67.49v2.46H42.87Z"/><path class="cls-4" d="M42.87,87.69H67.49v2.46H42.87Z"/><path class="cls-4" d="M42.87,92.61H67.49v2.46H42.87Z"/><path class="cls-4" d="M42.87,97.53H67.49V100H42.87Z"/><path class="cls-5" d="M138.61,76.73l-24.42,36.12,0,0c-.08.16-.18.31-.27.46,0,0,0,0,0,0"/><path class="cls-6" d="M130.08,50.24a4.86,4.86,0,1,1-4.85-4.84A4.86,4.86,0,0,1,130.08,50.24Z"/><path class="cls-5" d="M104.41,49.08c-.1.15-.21.3-.3.46"/><path class="cls-7" d="M134.42,71.86A28.6,28.6,0,0,0,123,74.21h0a29.27,29.27,0,0,0-4.14,2.21,28.11,28.11,0,0,0-5,4,28.89,28.89,0,0,0-2.35,2.71c-.2.27-31.31,46.14-31.31,46.14H93.39a28.75,28.75,0,0,0,11.29-2.4h0a29.1,29.1,0,0,0,4.1-2.16,29.58,29.58,0,0,0,5.11-4.14c1-1.08,3.31-4.06,3.31-4.06l30.29-44.69Zm-20.23,41-.3.49-1.33,1.91L111,117.12a24.14,24.14,0,0,1-17.58,7.63H88.87l.25-.37S115,86,115.7,85.22c.36-.44.73-.87,1.13-1.28a24.12,24.12,0,0,1,17.59-7.52h4.4Z"/><line class="cls-8" x1="37.05" y1="124.75" x2="37.04" y2="124.76"/><line class="cls-6" x1="138.85" y1="76.37" x2="138.81" y2="76.42"/><path class="cls-6" d="M57.94,117.89a28.78,28.78,0,0,1-7.36,6.86l27.88,0-3,4.56L34,129.31,37,124.76h.11a24.13,24.13,0,0,0,16.69-9l46.75-69.16a28.92,28.92,0,0,1,8.29-8.13,27.57,27.57,0,0,1,4.19-2.23,28.61,28.61,0,0,1,11.35-2.33h59.27L180.6,38.5A24.2,24.2,0,0,0,163,48.68c-.16.22-13.41,19.86-13.41,19.86h-5.5L159.2,46.19a28.88,28.88,0,0,1,7.93-7.69H124.42a24,24,0,0,0-19.85,10.34Z"/><path class="cls-6" d="M178,99.12s3.6,4.2,8.18,4.2c2.5,0,4.72-1.34,4.72-3.88,0-5.6-15.45-5.14-15.45-15.37,0-5.32,4.62-9.25,11-9.25,3.84,0,9.76,1.81,9.76,6.48V88l-5.46-3V82.87c0-1.53-2.17-2.54-4.35-2.54-2.77,0-4.81,1.43-4.81,3.51,0,5.6,15.46,4.49,15.46,15.27,0,5.23-4,9.67-10.92,9.67a15.12,15.12,0,0,1-11.29-5.09Z"/><path class="cls-6" d="M199.25,103.09H200a1.23,1.23,0,0,0,1.43-1l9.77-26.69h6.33l9.72,26.69a1.24,1.24,0,0,0,1.43,1h.74v5.14h-3.6c-2.32,0-3.15-.61-3.89-2.69l-2-5.74h-11.1l-2,5.74c-.74,2.08-1.52,2.69-3.84,2.69h-7.32Zm19.25-8.28-2.83-8.24c-.6-1.8-1.29-4.9-1.29-4.9h-.09s-.7,3.1-1.3,4.9l-2.82,8.24Z"/><path class="cls-6" d="M234.46,80.51h-3l-1.82-5.13h16c5.92,0,10.18,3.05,10.18,8.46a7.67,7.67,0,0,1-4,7V91c3.56,1.06,5.27,4.39,5.27,7.72,0,6.58-5.23,9.54-11.33,9.54h-8.19c-2.18,0-3.15-.93-3.15-3.15Zm11.24,8.28a3.87,3.87,0,0,0,4-4.21,3.77,3.77,0,0,0-4.07-4.07h-5.09v8.28Zm-4.16,14.3h4.72c3,0,4.62-2,4.62-4.77a4.39,4.39,0,0,0-4.62-4.71h-5.74v8.46A.93.93,0,0,0,241.54,103.09Z"/><path class="cls-6" d="M260.79,103.09h3.28V80.51h-3.28V75.38H275l-1.91,5.13h-3.29v22.58h3.29v5.14H260.79Z"/><path class="cls-6" d="M275.36,103.09h.75a1.24,1.24,0,0,0,1.43-1l9.76-26.69h6.34l9.72,26.69a1.23,1.23,0,0,0,1.43,1h4.34l-3.6,5.14h-3.61c-2.31,0-3.14-.61-3.88-2.69l-2-5.74H284.9l-2,5.74c-.74,2.08-1.53,2.69-3.84,2.69h-3.66Zm19.25-8.28-2.82-8.24c-.6-1.8-1.3-4.9-1.3-4.9h-.09s-.69,3.1-1.29,4.9l-2.83,8.24Zm-2.91-27.9h5.64l-4.86,6.29h-4.3Z"/></svg>