<svg width="270" height="80" viewBox="0 0 270 80" fill="none" xmlns="http://www.w3.org/2000/svg">
<path d="M80.3206 13.6207C80.3206 15.8602 78.5072 17.6735 76.2678 17.6735C74.0283 17.6735 72.215 15.8602 72.215 13.6207C72.215 11.3812 74.0283 9.56787 76.2678 9.56787C78.5072 9.56787 80.3206 11.3812 80.3206 13.6207Z" fill="#F5F5F5"/>
<path d="M83.9557 31.687C80.5797 31.687 77.3625 32.3889 74.4462 33.6507V33.6591C73.2345 34.1772 72.0814 34.7956 70.9867 35.5058C69.4826 36.4752 68.0871 37.6116 66.8336 38.8901C66.1317 39.6004 65.4799 40.3608 64.8699 41.1547C64.7028 41.3803 38.7064 79.7106 38.7064 79.7106H49.6698C53.0207 79.7106 56.2044 78.9418 59.1041 77.7051V77.6967C60.299 77.187 61.4438 76.577 62.5301 75.8918C64.0844 74.8974 65.5133 73.7442 66.8002 72.4323C67.686 71.5298 69.5661 69.048 69.5661 69.048L94.8773 31.7037H83.9557V31.687ZM67.0425 65.9394C67.0425 65.9394 66.867 66.2235 66.7918 66.3489C66.7835 66.3489 65.6805 67.9449 65.6805 67.9449L64.3518 69.5076C60.6667 73.41 55.4524 75.8751 49.6615 75.8751H45.8928L46.1017 75.5659C46.1017 75.5659 67.7612 43.5112 68.3127 42.8427C68.6135 42.475 68.931 42.1157 69.2569 41.7731C72.9337 37.879 78.1815 35.4975 83.9557 35.4975H87.6241L67.0425 65.9394Z" fill="#F5F5F5"/>
<path d="M20.0384 70.151C18.3421 72.4072 16.2613 74.3375 13.8881 75.8751L37.1855 75.9169L34.6702 79.7357L0 79.6939L2.57374 75.8834C2.60716 75.8751 2.64059 75.8751 2.66566 75.8751C8.29779 75.3737 13.2614 72.566 16.6123 68.3962L55.6779 10.6041C57.4996 7.89669 59.8644 5.582 62.6053 3.81047C63.7167 3.10018 64.8866 2.4651 66.1066 1.94701C69.0146 0.693572 72.215 0 75.5826 0H125.11L122.528 3.81047C116.47 4.36198 111.164 7.60422 107.846 12.3255C107.713 12.5094 96.6488 28.9211 96.6488 28.9211H92.0445L104.646 10.2448C106.417 7.69614 108.674 5.51515 111.264 3.81882H75.5743C68.7137 3.81882 62.6137 7.20312 58.987 12.4592C58.962 12.5177 20.0384 70.151 20.0384 70.151Z" fill="#F5F5F5"/>
<path d="M186.103 38.6643H182.727L180.68 32.8984H198.679C205.331 32.8984 210.119 36.3329 210.119 42.4079C210.119 46.5108 207.879 49.1681 205.648 50.3046V50.4049C209.651 51.5998 211.573 55.3434 211.573 59.087C211.573 66.4656 205.698 69.7914 198.838 69.7914H189.638C187.198 69.7914 186.103 68.7553 186.103 66.2567V38.6643ZM198.738 47.9732C201.596 47.9732 203.208 45.8925 203.208 43.2435C203.208 40.5946 201.646 38.6726 198.637 38.6726H192.922V47.9732H198.738ZM194.058 64.034H199.356C202.682 64.034 204.554 61.8028 204.554 58.6776C204.554 55.6108 202.632 53.3797 199.356 53.3797H192.913V62.8892C192.913 63.6161 193.331 64.034 194.058 64.034Z" fill="#F5F5F5"/>
<path d="M215.684 64.034H219.378V38.6643H215.684V32.8984H231.662L229.514 38.6643H225.821V64.034H229.514V69.7998H215.684V64.034Z" fill="#F5F5F5"/>
<path d="M232.054 64.0342H232.89C233.776 64.0342 234.185 63.8253 234.503 62.8894L245.474 32.8987H252.594L263.507 62.8894C263.816 63.8253 264.234 64.0342 265.12 64.0342H270L265.956 69.8H261.903C259.304 69.8 258.368 69.1232 257.541 66.7834L255.251 60.3407H242.767L240.477 66.7834C239.65 69.1232 238.764 69.8 236.165 69.8H232.063V64.0342H232.054ZM253.68 54.7253L250.513 45.4749C249.836 43.4443 249.059 39.9681 249.059 39.9681H248.951C248.951 39.9681 248.173 43.4527 247.497 45.4749L244.33 54.7253H253.68ZM250.405 23.3809H256.747L251.29 30.4503H246.452L250.405 23.3809Z" fill="#F5F5F5"/>
<path d="M146.544 64.034H147.38C148.266 64.034 148.675 63.8251 148.993 62.8891L159.956 32.8984H167.076L177.989 62.8891C178.298 63.8251 178.716 64.034 179.602 64.034H180.437V69.7998H176.385C173.786 69.7998 172.85 69.1229 172.023 66.7832L169.733 60.3405H157.257L154.967 66.7832C154.14 69.1229 153.254 69.7998 150.656 69.7998H142.433L146.544 64.034ZM168.17 54.7251L165.003 45.4747C164.326 43.4441 163.549 39.9679 163.549 39.9679H163.449C163.449 39.9679 162.672 43.4524 161.995 45.4747L158.828 54.7251H168.17Z" fill="#F5F5F5"/>
<path d="M122.695 59.5636C122.695 59.5636 126.74 64.2849 131.887 64.2849C134.695 64.2849 137.194 62.7808 137.194 59.9229C137.194 53.6306 119.829 54.1571 119.829 42.6672C119.829 36.6925 125.027 32.272 132.146 32.272C136.458 32.272 143.11 34.3025 143.11 39.5503V47.096L136.976 43.7034V41.3218C136.976 39.6088 134.536 38.464 132.088 38.464C128.971 38.464 126.681 40.0767 126.681 42.4165C126.681 48.7088 144.046 47.4553 144.046 59.572C144.046 65.4464 139.525 70.4351 131.779 70.4351C123.615 70.4351 119.094 64.7194 119.094 64.7194L122.695 59.5636Z" fill="#F5F5F5"/>
<path d="M127.6 15.3921C128.687 15.3921 129.581 15.7431 130.291 16.445C131.001 17.1469 131.361 18.016 131.361 19.0689C131.361 20.1134 131.001 20.9908 130.291 21.6927C129.581 22.3947 128.678 22.7456 127.609 22.7456H124.442V27.0825H123.188V15.3921H127.6ZM124.425 16.562V21.5674H127.592C128.344 21.5674 128.954 21.3418 129.414 20.8822C129.873 20.4226 130.099 19.8209 130.099 19.0605C130.099 18.3084 129.873 17.6984 129.414 17.2472C128.954 16.7876 128.352 16.562 127.592 16.562H124.425Z" fill="#F5F5F5"/>
<path d="M135.029 27.0825V15.3921H136.282V25.9127H142.291V27.0825H135.029Z" fill="#F5F5F5"/>
<path d="M146.711 23.8319L145.374 27.0825H144.037L148.875 15.3921H150.045L154.884 27.0825H153.555L152.218 23.8319H146.711ZM149.469 17.1469L147.213 22.6537H151.717L149.469 17.1469Z" fill="#F5F5F5"/>
<path d="M164.243 15.3921V16.562H160.566V27.0825H159.321V16.562H155.644V15.3921H164.243Z" fill="#F5F5F5"/>
<path d="M167.66 23.8319L166.323 27.0825H164.986L169.825 15.3921H170.995L175.833 27.0825H174.504L173.167 23.8319H167.66ZM170.418 17.1469L168.162 22.6537H172.666L170.418 17.1469Z" fill="#F5F5F5"/>
<path d="M186.947 15.3921V16.562H180.27V20.5646H185.61V21.7345H180.27V27.0742H179.017V15.3921H186.947Z" fill="#F5F5F5"/>
<path d="M199.464 25.4949C198.295 26.6648 196.874 27.2497 195.211 27.2497C193.54 27.2497 192.128 26.6648 190.958 25.4949C189.788 24.325 189.203 22.9045 189.203 21.2416C189.203 19.5703 189.788 18.1581 190.958 16.9882C192.128 15.8183 193.548 15.2334 195.211 15.2334C196.882 15.2334 198.295 15.8183 199.464 16.9882C200.634 18.1581 201.219 19.5787 201.219 21.2416C201.211 22.9045 200.626 24.325 199.464 25.4949ZM191.827 24.6844C192.746 25.6119 193.874 26.0799 195.211 26.0799C196.548 26.0799 197.676 25.6119 198.595 24.6844C199.515 23.7568 199.974 22.6036 199.974 21.2332C199.974 19.8628 199.515 18.718 198.595 17.7821C197.676 16.8545 196.548 16.3866 195.211 16.3866C193.874 16.3866 192.746 16.8545 191.827 17.7821C190.908 18.7096 190.448 19.8628 190.448 21.2332C190.448 22.6036 190.908 23.7568 191.827 24.6844Z" fill="#F5F5F5"/>
<path d="M209.651 15.3921C210.687 15.3921 211.539 15.7263 212.225 16.3948C212.91 17.0633 213.244 17.899 213.244 18.9017C213.244 19.4031 213.16 19.8543 212.993 20.2722C212.826 20.6816 212.626 21.0075 212.392 21.2415C212.158 21.4755 211.924 21.676 211.681 21.8348C211.439 22.0019 211.239 22.1105 211.08 22.1607L210.829 22.2442L213.587 27.0909H212.166L209.576 22.4197H206.241V27.0909H204.988V15.3921H209.651ZM206.233 16.562V21.2331H209.651C210.361 21.2331 210.929 21.0242 211.356 20.5981C211.782 20.1802 211.991 19.612 211.991 18.8934C211.991 18.1831 211.782 17.6149 211.356 17.1887C210.929 16.7709 210.361 16.5536 209.651 16.5536H206.233V16.562Z" fill="#F5F5F5"/>
<path d="M223.171 23.74L218.5 17.5647V27.0825H217.247V15.3921H218.333L223.18 21.7429L228.018 15.3921H229.104V27.0825H227.859V17.5647L223.171 23.74Z" fill="#F5F5F5"/>
<path d="M234.954 23.8319L233.617 27.0825H232.28L237.118 15.3921H238.288L243.126 27.0825H241.797L240.46 23.8319H234.954ZM237.703 17.1469L235.447 22.6537H239.959L237.703 17.1469Z" fill="#F5F5F5"/>
</svg>
