<svg width="384" height="384" viewBox="0 0 384 384" fill="none" xmlns="http://www.w3.org/2000/svg">
<path d="M332.037 224.256C331.016 211.476 316.892 193.536 302.538 188.605C284.206 182.277 272.586 192.307 255.805 190.472C210.432 185.503 198.336 153.231 180.349 123.986C140.475 59.1666 30.167 86.9144 43.177 171.525C51.0029 222.405 104.54 299.52 184.581 248.939C219.141 227.067 208.65 214.379 245.345 234.017C259.83 241.759 336.676 282.132 332.037 224.256Z" fill="#EDEDED"/>
<path d="M192 328.366C274.24 328.366 340.908 324.474 340.908 319.672C340.908 314.871 274.24 310.979 192 310.979C109.761 310.979 43.0928 314.871 43.0928 319.672C43.0928 324.474 109.761 328.366 192 328.366Z" fill="#F5F5F5"/>
<path d="M105.845 112.036C99.6554 118.264 110.177 127.934 103.227 132.373C108.902 135.222 128.793 138.839 133.947 127.634C130.191 124.716 132.802 117.543 129.339 110.654C124.155 100.439 99.6554 104.963 105.845 112.036Z" fill="#263238"/>
<path d="M106.406 111.875C104.478 111.552 97.9579 114.793 102.812 123.495C106.721 130.529 103.465 131.029 103.465 131.029C103.465 131.029 107.305 131.136 105.001 125.906C102.558 120.323 101.414 114.532 106.406 111.875Z" fill="#263238"/>
<path d="M152.064 167.124C151.827 166.69 151.428 166.366 150.954 166.222C150.48 166.078 149.968 166.127 149.53 166.356L149.077 166.595C148.931 166.671 148.654 166.856 148.431 166.986C148.209 167.117 147.948 167.263 147.702 167.386C147.218 167.629 146.717 167.84 146.204 168.015C145.255 168.359 144.257 168.549 143.247 168.576C142.32 168.587 141.398 168.439 140.521 168.138C139.964 167.931 139.427 167.674 138.916 167.37C138.255 165.911 137.626 164.436 137.088 162.916C136.435 161.142 135.859 159.329 135.352 157.494C134.846 155.658 134.4 153.8 134.031 151.933C133.839 151.004 133.67 150.067 133.517 149.138L133.31 147.748C133.24 147.302 133.179 146.796 133.141 146.442V146.289C133.039 145.27 132.536 144.334 131.744 143.686C130.952 143.038 129.935 142.731 128.917 142.833C127.898 142.934 126.962 143.437 126.314 144.229C125.666 145.021 125.359 146.038 125.461 147.057C125.514 147.709 125.56 148.209 125.63 148.754C125.699 149.299 125.775 149.821 125.852 150.351C126.021 151.411 126.213 152.456 126.428 153.5C126.855 155.576 127.394 157.627 128.041 159.644C128.341 160.658 128.709 161.656 129.055 162.662C129.4 163.668 129.823 164.652 130.261 165.627C131.099 167.598 132.05 169.518 133.11 171.379L133.202 171.548C133.478 172.048 133.891 172.458 134.392 172.731C135.844 173.522 137.413 174.077 139.039 174.374C140.709 174.669 142.421 174.633 144.077 174.267C146.414 173.725 148.561 172.56 150.29 170.895C150.574 170.634 150.843 170.365 151.058 170.081C151.273 169.797 151.534 169.528 151.826 169.129C152.051 168.852 152.193 168.516 152.235 168.161C152.277 167.806 152.218 167.447 152.064 167.124Z" fill="#FF8B7B"/>
<path d="M157.171 159.936H156.948C156.213 159.92 155.484 160.074 154.818 160.386C154.152 160.698 153.567 161.159 153.108 161.733L149.398 166.387V169.567C152.378 170.75 156.157 167.562 156.157 167.562L158.069 167.079C158.713 166.918 159.274 166.524 159.644 165.974C160.015 165.424 160.167 164.755 160.074 164.099L159.797 162.232C159.707 161.599 159.392 161.018 158.91 160.597C158.428 160.175 157.811 159.941 157.171 159.936V159.936Z" fill="#FF8B7B"/>
<path d="M133.041 141.988C135.521 144.538 135.675 152.148 135.675 152.148L125.752 160.136C125.752 160.136 121.674 148.846 123.932 144.86C125.845 141.481 129.877 138.739 133.041 141.988Z" fill="#00A688"/>
<g opacity="0.2">
<path opacity="0.2" d="M133.041 141.988C135.521 144.538 135.675 152.148 135.675 152.148L125.752 160.136C125.752 160.136 121.674 148.846 123.932 144.86C125.845 141.481 129.877 138.739 133.041 141.988Z" fill="white"/>
</g>
<path d="M116.62 313.091L122.104 313.69L122.856 298.791L117.373 298.184L116.62 313.091Z" fill="#FF8B7B"/>
<path d="M123.002 310.111H116.559C116.429 310.107 116.303 310.153 116.207 310.241C116.11 310.328 116.052 310.45 116.044 310.579L115.614 316.67C115.614 316.988 115.739 317.294 115.961 317.522C116.183 317.75 116.486 317.883 116.805 317.891C119.523 317.891 119.554 317.891 122.949 317.891H132.096C134.906 317.891 134.914 315.041 133.701 314.78C128.24 313.628 126.113 312.031 124.185 310.51C123.846 310.249 123.43 310.109 123.002 310.111V310.111Z" fill="#263238"/>
<path opacity="0.2" d="M122.857 298.798L122.465 306.478H116.951L117.374 298.191L122.857 298.798Z" fill="black"/>
<path d="M125.814 179.92C125.814 179.92 130.56 219.648 130.56 237.312C126.82 261.888 123.648 305.019 123.648 305.019L116.06 304.819C116.06 304.819 112.612 257.848 115.807 237.566C111.714 219.395 106.66 177.462 106.66 177.462L125.814 179.92Z" fill="#263238"/>
<path opacity="0.2" d="M111.183 190.979C110.279 191.377 109.401 191.833 108.557 192.346C109.601 200.187 110.976 210.056 112.435 219.164C114.923 211.669 113.579 195.187 111.183 190.979Z" fill="black"/>
<path d="M57.2393 299.259L61.7628 302.416L69.5657 289.697L65.0421 286.541L57.2393 299.259Z" fill="#FF8B7B"/>
<path d="M62.9067 300.749L59.0667 295.58C58.9936 295.474 58.8818 295.402 58.7555 295.377C58.6291 295.353 58.4982 295.379 58.3909 295.45L53.2453 298.752C52.9886 298.941 52.8165 299.223 52.7662 299.538C52.7159 299.853 52.7914 300.175 52.9765 300.434C54.5816 302.623 54.6123 302.638 56.6321 305.357C57.884 307.024 60.38 310.38 62.1003 312.691C63.8206 315.003 66.0709 313.252 65.5486 312.115C63.2446 307.054 63.2446 304.435 63.2907 301.947C63.2985 301.516 63.1635 301.095 62.9067 300.749V300.749Z" fill="#263238"/>
<path opacity="0.2" d="M69.558 289.697L65.5414 296.256L60.6953 293.614L65.0422 286.541L69.558 289.697Z" fill="black"/>
<path d="M84.9867 304.589C81.0623 304.589 72.8907 304.589 72.7525 298.813C72.645 294.282 78.2514 292.401 83.0898 292.17C83.6259 292.144 84.1618 292.224 84.6669 292.406C85.172 292.587 85.6365 292.866 86.0337 293.227C86.431 293.588 86.7532 294.023 86.9821 294.509C87.211 294.994 87.3419 295.52 87.3675 296.056V296.363C92.8511 296.102 96.3992 294.904 97.6971 292.861C100.623 288.253 95.0168 276.357 89.6024 264.86C83.228 251.336 76.0088 236.014 75.8706 221.338C75.8655 220.801 75.9662 220.269 76.1668 219.771C76.3675 219.273 76.6642 218.82 77.0401 218.437C77.4159 218.054 77.8635 217.749 78.3573 217.539C78.8511 217.329 79.3814 217.218 79.9179 217.213V217.213C80.9943 217.215 82.0266 217.641 82.7913 218.399C83.556 219.156 83.9916 220.184 84.0037 221.261C84.1266 234.148 90.9157 248.609 96.9522 261.373C103.864 276.104 109.893 288.829 104.555 297.239C101.46 302.185 95.0475 304.589 84.9867 304.589Z" fill="#00A688"/>
<path d="M119.738 179.136C119.738 179.136 106.636 224.54 100.239 241.006C87.8434 262.556 67.2764 295.534 67.2764 295.534L60.71 291.694C60.71 291.694 76.07 253.601 86.3996 235.861C89.172 217.429 99.6552 176.525 99.6552 176.525L119.738 179.136Z" fill="#263238"/>
<path d="M64.0897 304.458C64.3503 304.89 64.7518 305.218 65.2263 305.388C65.3653 305.421 65.5107 305.415 65.6464 305.37C65.7821 305.325 65.9026 305.244 65.9943 305.134C66.0582 305.076 66.1069 305.002 66.1363 304.921C66.1658 304.839 66.175 304.752 66.1633 304.666C66.0711 303.744 63.6903 302.546 63.2142 302.316C63.1864 302.304 63.1555 302.304 63.1272 302.314C63.0989 302.323 63.0752 302.343 63.0606 302.369C63.0421 302.398 63.0322 302.431 63.0322 302.465C63.0322 302.5 63.0421 302.533 63.0606 302.561C63.3426 303.225 63.6872 303.86 64.0897 304.458V304.458ZM65.7255 304.458C65.7932 304.543 65.8381 304.643 65.8561 304.75C65.8598 304.78 65.8561 304.81 65.8454 304.839C65.8347 304.867 65.8173 304.892 65.7947 304.912C65.7327 304.982 65.6531 305.035 65.5641 305.065C65.475 305.094 65.3797 305.1 65.2878 305.081C64.7809 304.981 64.1127 304.159 63.4676 302.861C64.3041 303.251 65.0677 303.781 65.7255 304.428V304.458Z" fill="#00A688"/>
<path d="M63.0215 302.592L63.0676 302.63C63.8356 303.053 65.8324 303.398 66.2701 302.761C66.3436 302.645 66.3793 302.508 66.3725 302.371C66.3656 302.233 66.3164 302.101 66.2317 301.993C65.4637 300.634 63.1597 302.231 63.0599 302.3C63.037 302.318 63.0188 302.342 63.0068 302.369C62.9947 302.395 62.9892 302.425 62.9908 302.454C62.9877 302.502 62.9983 302.55 63.0215 302.592ZM65.9399 302.147C65.9623 302.173 65.9828 302.202 66.0013 302.231C66.0858 302.377 66.1012 302.485 66.0551 302.546C65.8016 302.915 64.3271 302.784 63.4669 302.446C64.0429 302.101 65.3869 301.402 65.9399 302.147Z" fill="#00A688"/>
<path d="M126.72 311.378C127.223 311.424 127.727 311.296 128.149 311.017C128.255 310.924 128.334 310.802 128.376 310.667C128.418 310.531 128.422 310.387 128.387 310.249C128.376 310.162 128.345 310.079 128.297 310.006C128.249 309.933 128.185 309.871 128.11 309.827C127.342 309.358 124.938 310.549 124.47 310.794C124.443 310.809 124.423 310.832 124.412 310.86C124.4 310.888 124.399 310.919 124.408 310.948C124.42 310.98 124.44 311.009 124.465 311.031C124.49 311.054 124.521 311.07 124.554 311.078C125.264 311.252 125.99 311.352 126.72 311.378V311.378ZM127.672 310.049C127.782 310.042 127.891 310.066 127.987 310.118C128.026 310.118 128.064 310.172 128.079 310.264C128.1 310.356 128.094 310.452 128.065 310.541C128.035 310.63 127.982 310.71 127.91 310.771C127.534 311.117 126.474 311.163 125.046 310.91C125.853 310.477 126.728 310.186 127.634 310.049H127.672Z" fill="#00A688"/>
<path d="M124.554 311.117H124.608C125.376 310.764 126.874 309.358 126.628 308.628C126.577 308.508 126.491 308.405 126.382 308.333C126.273 308.26 126.145 308.222 126.014 308.221C124.478 308.045 124.37 310.825 124.362 310.94C124.363 310.971 124.37 311.001 124.385 311.028C124.4 311.054 124.421 311.077 124.447 311.094C124.479 311.112 124.517 311.12 124.554 311.117V311.117ZM125.937 308.506H126.044C126.206 308.506 126.305 308.575 126.328 308.652C126.474 309.074 125.491 310.188 124.7 310.671C124.769 310.003 125.015 308.506 125.952 308.506H125.937Z" fill="#00A688"/>
<path d="M99.6553 176.563L125.813 179.912C131.712 160.051 133.655 150.459 134.177 145.843C134.315 144.683 134.044 143.511 133.41 142.53C132.776 141.548 131.82 140.819 130.706 140.467C129.17 139.976 127.188 139.392 125.222 138.931C124.554 138.755 123.87 138.594 123.202 138.44C119.286 137.645 115.318 137.132 111.329 136.904C110.738 136.85 110.154 136.819 109.562 136.789C108.403 136.727 107.258 136.712 106.214 136.712C105.43 136.711 104.655 136.873 103.937 137.189C103.219 137.504 102.575 137.965 102.045 138.543C101.516 139.121 101.112 139.803 100.861 140.546C100.609 141.288 100.515 142.075 100.585 142.856C100.792 145.16 100.953 147.303 101.076 149.269C101.368 153.877 101.46 157.563 101.391 160.789C101.234 166.085 100.654 171.36 99.6553 176.563V176.563Z" fill="#00A688"/>
<g opacity="0.3">
<path opacity="0.3" d="M99.6553 176.563L125.813 179.912C131.712 160.051 133.655 150.459 134.177 145.843C134.315 144.683 134.044 143.511 133.41 142.53C132.776 141.548 131.82 140.819 130.706 140.467C129.17 139.976 127.188 139.392 125.222 138.931C124.554 138.755 123.87 138.594 123.202 138.44C119.286 137.645 115.318 137.132 111.329 136.904C110.738 136.85 110.154 136.819 109.562 136.789C108.403 136.727 107.258 136.712 106.214 136.712C105.43 136.711 104.655 136.873 103.937 137.189C103.219 137.504 102.575 137.965 102.045 138.543C101.516 139.121 101.112 139.803 100.861 140.546C100.609 141.288 100.515 142.075 100.585 142.856C100.792 145.16 100.953 147.303 101.076 149.269C101.368 153.877 101.46 157.563 101.391 160.789C101.234 166.085 100.654 171.36 99.6553 176.563V176.563Z" fill="white"/>
</g>
<path opacity="0.3" d="M101.375 160.758C104.831 156.288 106.083 151.173 104.962 148.354L101.061 149.23C101.375 153.823 101.46 157.524 101.375 160.758Z" fill="#00A688"/>
<path d="M125.222 138.885C124.546 138.709 123.87 138.547 123.202 138.394C119.283 137.603 115.313 137.09 111.321 136.858C110.73 136.812 110.146 136.781 109.562 136.75L108.541 136.704L109.309 138.048C109.417 138.232 112.028 142.502 118.525 147.095L119.915 148.063L121.251 147.041C122.538 146.118 123.59 144.905 124.321 143.5C125.052 142.095 125.442 140.538 125.46 138.954L125.222 138.885Z" fill="white"/>
<path d="M114.209 128.963C113.963 132.196 113.203 135.491 111.321 136.873C111.321 136.873 113.717 140.859 119.923 145.214C123.809 142.241 123.202 138.394 123.202 138.394C119.07 136.858 119.362 133.993 121.106 129.423L117.88 127.688C117.602 127.381 117.239 127.163 116.838 127.061C116.437 126.958 116.014 126.976 115.623 127.112C115.232 127.248 114.889 127.496 114.638 127.825C114.386 128.154 114.237 128.55 114.209 128.963V128.963Z" fill="#FF8B7B"/>
<path opacity="0.2" d="M117.881 127.688C117.619 127.399 117.283 127.188 116.91 127.079C116.536 126.969 116.139 126.965 115.763 127.066C115.387 127.168 115.047 127.372 114.779 127.655C114.512 127.938 114.328 128.29 114.248 128.671C115.473 131.141 117.449 133.16 119.893 134.439C119.98 132.707 120.389 131.006 121.099 129.423L117.881 127.688Z" fill="black"/>
<path d="M109.187 118.825C110.792 125.069 111.337 127.742 115.154 130.345C120.891 134.293 128.21 130.959 128.494 124.37C128.763 118.433 126.098 109.217 119.432 107.896C117.96 107.596 116.436 107.677 115.005 108.132C113.573 108.587 112.282 109.402 111.255 110.498C110.228 111.594 109.498 112.934 109.136 114.392C108.774 115.85 108.792 117.376 109.187 118.825V118.825Z" fill="#FF8B7B"/>
<path d="M125.076 109.187C121.316 112.529 116.855 114.988 112.02 116.383C112.02 116.383 116.79 126.528 107.865 123.971C105.277 115.331 107.865 110.845 110.169 108.733C117.266 106.429 122.258 105.661 125.076 109.187Z" fill="#263238"/>
<path d="M108.887 124.977C109.411 126.108 110.36 126.986 111.529 127.419C113.065 127.972 113.979 126.651 113.649 125.115C113.349 123.74 112.182 121.79 110.577 121.889C110.23 121.919 109.895 122.034 109.603 122.224C109.311 122.415 109.071 122.674 108.904 122.98C108.737 123.286 108.647 123.628 108.645 123.976C108.642 124.325 108.725 124.668 108.887 124.977V124.977Z" fill="#FF8B7B"/>
<path d="M99.4634 174.981L97.9811 177.17C97.8659 177.339 98.0579 177.554 98.3574 177.592L125.79 181.11C126.028 181.11 126.236 181.048 126.274 180.902L126.812 178.598C126.812 178.437 126.658 178.276 126.405 178.237L99.9088 174.843C99.829 174.824 99.7456 174.827 99.6673 174.852C99.589 174.876 99.5186 174.921 99.4634 174.981V174.981Z" fill="#00A688"/>
<path d="M102.636 178.399L101.929 178.307C101.791 178.307 101.691 178.199 101.714 178.115L102.436 175.112C102.464 175.061 102.507 175.021 102.561 174.999C102.614 174.977 102.673 174.973 102.728 174.989L103.442 175.081C103.58 175.081 103.68 175.181 103.657 175.273L102.935 178.268C102.912 178.36 102.782 178.414 102.636 178.399Z" fill="#263238"/>
<path d="M123.763 181.102L123.056 181.018C122.918 181.018 122.818 180.91 122.841 180.818L123.563 177.823C123.563 177.738 123.717 177.677 123.855 177.692L124.569 177.784C124.707 177.784 124.807 177.892 124.784 177.976L124.062 180.979C124.039 181.064 123.909 181.125 123.763 181.102Z" fill="#263238"/>
<path d="M113.203 179.75L112.497 179.658C112.351 179.658 112.251 179.558 112.274 179.466L112.996 176.471C112.996 176.379 113.149 176.325 113.295 176.34L114.002 176.433C114.14 176.433 114.24 176.54 114.225 176.625L113.495 179.628C113.48 179.712 113.341 179.766 113.203 179.75Z" fill="#263238"/>
<path d="M119.885 118.556C119.977 119.071 120.331 119.439 120.653 119.37C120.976 119.301 121.183 118.84 121.083 118.326C120.983 117.811 120.63 117.443 120.315 117.512C120 117.581 119.808 118.042 119.885 118.556Z" fill="#263238"/>
<path d="M125.691 117.443C125.791 117.957 126.144 118.318 126.459 118.257C126.774 118.195 126.989 117.719 126.889 117.205C126.789 116.69 126.436 116.329 126.121 116.391C125.806 116.452 125.599 116.928 125.691 117.443Z" fill="#263238"/>
<path d="M125.952 116.452L127.119 115.853C127.119 115.853 126.72 116.944 125.952 116.452Z" fill="#263238"/>
<path d="M124.154 118.595C124.841 119.677 125.67 120.661 126.62 121.521C126.395 121.76 126.12 121.946 125.814 122.067C125.509 122.188 125.181 122.24 124.853 122.22L124.154 118.595Z" fill="#FF5652"/>
<path d="M120.53 124.293C120.506 124.32 120.493 124.354 120.492 124.39C120.491 124.425 120.503 124.46 120.524 124.488C120.546 124.516 120.577 124.535 120.611 124.543C120.646 124.551 120.682 124.547 120.714 124.531C121.294 124.235 121.936 124.081 122.588 124.081C123.239 124.081 123.881 124.235 124.462 124.531C124.496 124.551 124.538 124.557 124.576 124.547C124.615 124.537 124.648 124.512 124.669 124.478C124.69 124.443 124.697 124.401 124.688 124.361C124.68 124.321 124.656 124.286 124.623 124.263C123.997 123.942 123.303 123.774 122.599 123.774C121.896 123.774 121.202 123.942 120.576 124.263C120.576 124.263 120.576 124.278 120.53 124.293Z" fill="#263238"/>
<path d="M117.88 116.974C117.928 116.945 117.965 116.902 117.988 116.851C118.148 116.501 118.389 116.194 118.69 115.955C118.992 115.716 119.346 115.552 119.724 115.476C119.764 115.472 119.803 115.459 119.839 115.439C119.874 115.419 119.905 115.392 119.93 115.36C119.955 115.328 119.974 115.291 119.984 115.252C119.995 115.212 119.998 115.171 119.992 115.131C119.989 115.091 119.977 115.052 119.958 115.016C119.938 114.981 119.912 114.95 119.881 114.924C119.849 114.899 119.813 114.881 119.774 114.87C119.735 114.859 119.694 114.857 119.654 114.862C119.174 114.952 118.723 115.155 118.337 115.454C117.951 115.753 117.641 116.14 117.435 116.582C117.405 116.643 117.396 116.712 117.409 116.778C117.422 116.844 117.457 116.904 117.508 116.949C117.558 116.993 117.622 117.02 117.69 117.025C117.757 117.029 117.824 117.011 117.88 116.974V116.974Z" fill="#263238"/>
<path d="M127.419 113.08L127.457 113.042C127.481 113.009 127.497 112.971 127.506 112.931C127.515 112.892 127.516 112.851 127.509 112.811C127.501 112.771 127.486 112.733 127.464 112.698C127.442 112.664 127.414 112.635 127.38 112.612C126.983 112.326 126.524 112.14 126.04 112.068C125.557 111.996 125.063 112.04 124.6 112.197C124.526 112.229 124.467 112.289 124.436 112.363C124.405 112.437 124.403 112.521 124.431 112.596C124.462 112.672 124.521 112.732 124.596 112.763C124.671 112.795 124.755 112.796 124.831 112.765C125.198 112.645 125.59 112.614 125.972 112.676C126.354 112.737 126.716 112.889 127.027 113.119C127.086 113.161 127.158 113.18 127.23 113.173C127.302 113.166 127.369 113.133 127.419 113.08V113.08Z" fill="#263238"/>
<path d="M120.169 117.565L121.336 116.974C121.336 116.974 120.883 118.057 120.169 117.565Z" fill="#263238"/>
<path d="M79.9562 225.385C78.8793 225.385 77.8458 224.96 77.0807 224.202C76.3155 223.444 75.8806 222.414 75.8705 221.338C75.763 210.432 79.3956 201.224 86.3767 194.711C94.9706 186.693 108.372 182.968 124.132 184.212C135.183 185.088 142.272 182.4 150.474 179.274C151.826 178.767 153.185 178.245 154.583 177.738C155.601 177.367 156.725 177.417 157.707 177.875C158.69 178.333 159.45 179.162 159.821 180.18C160.191 181.199 160.142 182.323 159.684 183.305C159.226 184.287 158.397 185.047 157.378 185.418C156.019 185.91 154.698 186.417 153.385 186.916C145.021 190.095 136.381 193.375 123.486 192.361C110.046 191.293 98.849 194.25 91.9524 200.686C86.5764 205.663 83.9575 212.582 84.042 221.261C84.0471 221.797 83.9464 222.33 83.7457 222.827C83.5451 223.325 83.2484 223.778 82.8725 224.161C82.4967 224.544 82.0491 224.849 81.5553 225.059C81.0615 225.269 80.5312 225.38 79.9946 225.385H79.9562Z" fill="#00A688"/>
<path d="M174.447 191.187L158.013 197.208C156.641 197.71 155.127 197.647 153.802 197.033C152.477 196.419 151.45 195.303 150.948 193.932L144.161 175.406C143.659 174.034 143.722 172.52 144.336 171.195C144.951 169.87 146.066 168.843 147.437 168.341L163.872 162.32L174.439 191.166L174.447 191.187Z" fill="#00A688"/>
<path opacity="0.7" d="M174.447 191.187L158.013 197.208C156.641 197.71 155.127 197.647 153.802 197.033C152.477 196.419 151.45 195.303 150.948 193.932L144.161 175.406C143.659 174.034 143.722 172.52 144.336 171.195C144.951 169.87 146.066 168.843 147.437 168.341L163.872 162.32L174.439 191.166L174.447 191.187Z" fill="white"/>
<path opacity="0.2" d="M156.549 164.997L163.884 162.317L174.451 191.178L167.117 193.866C166.629 193.394 166.256 192.816 166.026 192.177L156.81 166.994C156.569 166.358 156.48 165.674 156.549 164.997V164.997Z" fill="#00A688"/>
<path d="M180.354 169.506L179.633 169.77L181.392 174.573L182.113 174.309L180.354 169.506Z" fill="#00A688"/>
<path d="M178.522 166.779L175.934 159.698C175.49 158.497 174.689 157.461 173.638 156.729C172.588 155.998 171.339 155.605 170.059 155.604C169.33 155.602 168.607 155.73 167.924 155.981L163.254 157.693L162.985 156.971L167.662 155.259C168.43 154.977 169.241 154.834 170.059 154.836C171.497 154.84 172.9 155.283 174.079 156.107C175.258 156.93 176.157 158.095 176.656 159.444L179.244 166.525L178.522 166.779Z" fill="#00A688"/>
<path d="M174.575 193.256L181.433 190.775C183.674 189.965 184.833 187.491 184.023 185.25L174.714 159.514C173.903 157.273 171.43 156.114 169.189 156.924L162.331 159.405C160.09 160.215 158.931 162.689 159.741 164.93L169.05 190.666C169.861 192.907 172.334 194.066 174.575 193.256Z" fill="#00A688"/>
<path d="M170.649 167.324C170.806 167.752 170.832 168.217 170.724 168.661C170.616 169.104 170.38 169.505 170.044 169.813C169.708 170.121 169.288 170.323 168.837 170.393C168.387 170.462 167.925 170.396 167.512 170.204C167.099 170.011 166.752 169.7 166.516 169.31C166.279 168.92 166.164 168.469 166.184 168.014C166.204 167.558 166.359 167.119 166.629 166.751C166.899 166.384 167.272 166.105 167.7 165.949C168.274 165.742 168.906 165.77 169.459 166.027C170.012 166.285 170.44 166.751 170.649 167.324Z" fill="#263238"/>
<path d="M176.387 182.984C176.543 183.412 176.568 183.877 176.46 184.319C176.352 184.762 176.115 185.162 175.78 185.47C175.444 185.778 175.025 185.98 174.575 186.05C174.124 186.119 173.664 186.054 173.251 185.862C172.838 185.67 172.491 185.36 172.254 184.971C172.017 184.581 171.901 184.131 171.92 183.676C171.939 183.221 172.093 182.781 172.362 182.414C172.63 182.046 173.002 181.766 173.43 181.609C173.714 181.505 174.016 181.458 174.319 181.471C174.622 181.484 174.919 181.556 175.193 181.684C175.468 181.811 175.715 181.992 175.919 182.215C176.124 182.438 176.283 182.699 176.387 182.984V182.984Z" fill="#263238"/>
<path d="M109.056 181.133L108.994 181.064C107.796 179.866 106.529 178.56 105.385 177.224C104.241 175.887 103.119 174.551 102.098 173.169C101.096 171.82 100.186 170.406 99.3714 168.937C98.7888 167.886 98.2931 166.789 97.8892 165.658C98.35 164.122 98.8415 162.586 99.4252 161.111C100.093 159.337 100.846 157.594 101.668 155.873C102.489 154.153 103.365 152.463 104.31 150.812C104.77 149.983 105.254 149.161 105.753 148.355L106.521 147.172C106.76 146.788 107.044 146.404 107.243 146.074L107.328 145.951C107.874 145.119 108.075 144.107 107.89 143.129C107.705 142.151 107.147 141.284 106.334 140.709C105.522 140.134 104.518 139.898 103.534 140.049C102.55 140.2 101.664 140.727 101.061 141.519C100.677 142.042 100.385 142.456 100.078 142.91C99.7708 143.363 99.4943 143.816 99.2024 144.269C98.6418 145.175 98.0965 146.089 97.5743 147.018C96.5353 148.872 95.5945 150.78 94.7557 152.732C94.3256 153.7 93.9877 154.691 93.55 155.681C93.1122 156.672 92.8204 157.678 92.5132 158.707C91.8613 160.746 91.3254 162.821 90.908 164.92V165.097C90.7888 165.657 90.8287 166.24 91.0232 166.779C91.7674 168.748 92.7556 170.616 93.9647 172.339C95.1033 173.975 96.372 175.516 97.7586 176.947C99.1093 178.326 100.543 179.622 102.052 180.826C103.56 182.028 105.142 183.134 106.79 184.136C107.19 184.37 107.662 184.45 108.117 184.361C108.572 184.272 108.979 184.02 109.261 183.653C109.544 183.286 109.683 182.828 109.652 182.365C109.621 181.903 109.423 181.467 109.094 181.141L109.056 181.133Z" fill="#FF8B7B"/>
<path d="M117.98 184.95L117.88 184.75C117.561 184.085 117.092 183.502 116.51 183.049C115.927 182.596 115.248 182.284 114.524 182.139L108.695 180.956L105.846 182.377C106.153 185.572 110.715 187.484 110.715 187.484L112.013 188.967C112.45 189.464 113.056 189.782 113.714 189.859C114.371 189.937 115.035 189.77 115.576 189.389L117.112 188.291C117.629 187.926 117.999 187.391 118.158 186.779C118.317 186.168 118.254 185.519 117.98 184.95V184.95Z" fill="#FF8B7B"/>
<path d="M103.826 137.203C100.593 138.685 97.1523 143.816 97.1523 143.816L104.064 156.756C104.064 156.756 111.921 147.702 111.261 143.171C110.723 139.323 107.943 135.314 103.826 137.203Z" fill="#00A688"/>
<g opacity="0.3">
<path opacity="0.3" d="M103.826 137.203C100.593 138.685 97.1523 143.816 97.1523 143.816L104.064 156.756C104.064 156.756 111.921 147.702 111.261 143.171C110.723 139.323 107.943 135.314 103.826 137.203Z" fill="white"/>
</g>
<path d="M325.087 306.762C318.321 306.762 311.67 305.372 308.444 301.164C293.176 281.196 293.315 241.029 293.445 202.161C293.522 181.233 295.173 161.457 292.846 146.097C291.479 137.042 286.702 130.829 281.879 127.619C274.721 122.888 264.891 125.43 260.69 126.513C260.167 126.659 259.62 126.699 259.081 126.631C258.541 126.564 258.021 126.389 257.551 126.118C257.08 125.846 256.668 125.484 256.339 125.052C256.01 124.619 255.771 124.125 255.635 123.599C255.499 123.073 255.469 122.525 255.548 121.988C255.626 121.45 255.811 120.934 256.092 120.468C256.372 120.003 256.743 119.598 257.181 119.278C257.62 118.957 258.119 118.728 258.647 118.602C263.893 117.243 276.196 114.071 286.38 120.799C293.253 125.338 299.198 133.44 300.926 144.876C303.345 160.85 301.694 180.918 301.617 202.161C301.486 239.662 301.356 278.439 314.934 296.172C316.032 297.6 320.31 298.883 327.414 298.514C328.044 298.514 328.658 298.445 329.265 298.391C328.99 297.835 328.848 297.222 328.85 296.602C328.85 295.518 329.281 294.479 330.047 293.713C330.813 292.946 331.852 292.516 332.936 292.516C341.868 292.516 346.568 293.284 347.474 297.37C347.735 298.545 347.873 301.494 343.557 303.514C340.332 305.027 332.636 306.762 325.087 306.762Z" fill="#00A688"/>
<path d="M235.677 310.287L227.344 307.008L231.737 292.562L240.077 295.834L235.677 310.287Z" fill="#FFC3BD"/>
<path d="M227.144 306.125L236.544 309.811C236.663 309.86 236.763 309.946 236.827 310.058C236.891 310.169 236.916 310.299 236.898 310.426L235.976 316.278C235.952 316.419 235.897 316.554 235.814 316.671C235.731 316.788 235.623 316.885 235.498 316.955C235.373 317.025 235.233 317.066 235.09 317.075C234.947 317.084 234.803 317.061 234.67 317.007C232.313 316.032 228.619 314.419 225.631 313.244C223.796 312.522 220.301 311.37 217.759 310.372C215.217 309.374 215.877 306.732 216.991 306.916C222.052 307.73 223.988 306.862 226.007 306.11C226.374 305.969 226.781 305.975 227.144 306.125V306.125Z" fill="#263238"/>
<path opacity="0.2" d="M240.077 295.841L231.736 292.562L229.471 300.012L237.811 303.291L240.077 295.841Z" fill="black"/>
<path d="M250.498 184.021C250.498 184.021 242.957 221.299 240.077 239.685C236.836 260.291 228.272 297.93 228.272 297.93L239.355 302.285C239.355 302.285 255.183 263.747 257.387 245.084C264.031 229.916 277.24 185.28 277.24 185.28L250.498 184.021Z" fill="#00A688"/>
<path d="M227.735 297.992L239.9 302.776L241.982 299.09L228.38 293.453L227.735 297.992Z" fill="#263238"/>
<path d="M224.756 306.286C224.331 306.154 223.964 305.884 223.711 305.518C223.641 305.383 223.604 305.233 223.604 305.08C223.604 304.928 223.641 304.778 223.711 304.643C223.742 304.559 223.796 304.486 223.867 304.432C223.937 304.378 224.022 304.344 224.11 304.335C224.917 304.251 226.414 306.217 226.56 306.447C226.577 306.472 226.586 306.502 226.586 306.532C226.586 306.562 226.577 306.591 226.56 306.616C226.544 306.642 226.521 306.662 226.494 306.674C226.467 306.686 226.436 306.69 226.407 306.685C225.843 306.613 225.29 306.479 224.756 306.286V306.286ZM224.349 304.681C224.287 304.651 224.218 304.637 224.149 304.643C224.103 304.643 224.049 304.643 223.995 304.773C223.944 304.865 223.917 304.968 223.917 305.073C223.917 305.178 223.944 305.281 223.995 305.372C224.218 305.779 224.986 306.14 226.1 306.325C225.632 305.665 225.036 305.106 224.349 304.681V304.681Z" fill="#00A688"/>
<path d="M226.391 306.678C226.366 306.67 226.345 306.653 226.33 306.632C225.838 306.048 225.147 304.243 225.562 303.621C225.626 303.525 225.721 303.453 225.831 303.418C225.942 303.383 226.061 303.387 226.168 303.429C226.282 303.458 226.389 303.511 226.482 303.584C226.574 303.656 226.651 303.748 226.706 303.852C227.182 304.704 226.645 306.501 226.621 306.578C226.612 306.605 226.596 306.63 226.575 306.649C226.553 306.667 226.527 306.68 226.499 306.686C226.482 306.694 226.463 306.698 226.444 306.696C226.425 306.695 226.407 306.689 226.391 306.678V306.678ZM226.13 303.744H226.069C225.869 303.698 225.823 303.744 225.8 303.813C225.569 304.182 225.946 305.488 226.383 306.202C226.602 305.491 226.602 304.731 226.383 304.021C226.335 303.901 226.245 303.803 226.13 303.744V303.744Z" fill="#00A688"/>
<path opacity="0.2" d="M266.757 206.592C262.579 211.768 260.928 224.963 260.943 235.96C263.762 228.196 266.995 218.335 269.837 209.38L266.757 206.592Z" fill="black"/>
<path d="M285.827 311.678H276.872L275.682 296.625H284.636L285.827 311.678Z" fill="#FFC3BD"/>
<path d="M276.365 310.925H286.464C286.594 310.924 286.72 310.968 286.82 311.049C286.921 311.13 286.991 311.244 287.017 311.37L288.3 317.146C288.33 317.287 288.328 317.433 288.294 317.573C288.26 317.713 288.194 317.843 288.103 317.955C288.011 318.066 287.896 318.155 287.765 318.216C287.635 318.277 287.492 318.307 287.348 318.305C284.798 318.259 280.781 318.106 277.571 318.106C275.59 318.106 271.919 318.313 269.192 318.313C266.466 318.313 266.12 315.617 267.218 315.372C272.233 314.273 273.723 312.768 275.321 311.324C275.609 311.068 275.98 310.926 276.365 310.925V310.925Z" fill="#263238"/>
<path opacity="0.2" d="M284.636 296.625H275.674L276.296 304.389H285.258L284.636 296.625Z" fill="black"/>
<path d="M261.343 184.489C261.343 184.489 266.304 226.03 267.349 240.983C268.8 261.796 274.414 302.884 274.414 302.884H286.318C286.318 302.884 287.593 260.92 285.443 242.25C288.407 225.961 287.47 185.741 287.47 185.741L261.343 184.489Z" fill="#00A688"/>
<path d="M273.938 303.137H287.009L287.6 298.952L272.878 298.675L273.938 303.137Z" fill="#263238"/>
<path d="M274.176 311.946C273.734 311.979 273.293 311.863 272.925 311.616C272.81 311.516 272.721 311.389 272.665 311.248C272.609 311.106 272.587 310.953 272.602 310.802C272.602 310.711 272.627 310.622 272.675 310.545C272.722 310.468 272.79 310.405 272.871 310.364C273.593 309.995 275.689 311.286 275.943 311.432C275.97 311.447 275.991 311.469 276.005 311.497C276.018 311.524 276.024 311.555 276.02 311.585C276.013 311.616 275.998 311.644 275.976 311.667C275.954 311.69 275.927 311.707 275.897 311.716C275.334 311.857 274.757 311.935 274.176 311.946ZM273.209 310.602C273.14 310.598 273.071 310.611 273.009 310.641C272.971 310.641 272.925 310.702 272.917 310.817C272.901 310.921 272.912 311.026 272.948 311.124C272.984 311.223 273.045 311.31 273.124 311.378C273.478 311.677 274.33 311.716 275.428 311.493C274.76 311.058 274.014 310.755 273.232 310.602H273.209Z" fill="#00A688"/>
<path d="M275.866 311.716H275.789C275.121 311.347 273.815 309.926 273.954 309.197C273.977 309.084 274.038 308.982 274.128 308.909C274.217 308.836 274.33 308.797 274.445 308.797C274.561 308.781 274.68 308.79 274.792 308.823C274.905 308.856 275.009 308.913 275.098 308.989C275.866 309.612 276.012 311.485 276.019 311.562C276.021 311.59 276.016 311.619 276.003 311.644C275.991 311.669 275.973 311.692 275.95 311.708C275.923 311.718 275.894 311.72 275.866 311.716V311.716ZM274.553 309.082H274.483C274.284 309.082 274.268 309.204 274.261 309.243C274.176 309.665 275.029 310.779 275.674 311.255C275.627 310.513 275.36 309.801 274.906 309.212C274.806 309.13 274.682 309.084 274.553 309.082V309.082Z" fill="#00A688"/>
<path d="M265.451 127.204L258.278 127.112C255.867 127.112 253.47 127.035 251.097 126.996C250.375 126.996 249.669 126.95 248.955 126.92C249.001 126.92 249.031 126.835 249.07 126.797C249.577 126.259 250.084 125.706 250.606 125.176C250.867 124.9 251.123 124.631 251.374 124.37C251.612 124.109 251.919 123.817 252.08 123.602L252.733 122.772C253.248 122.116 253.543 121.314 253.576 120.481C253.609 119.647 253.379 118.825 252.918 118.129C252.458 117.434 251.79 116.902 251.009 116.607C250.229 116.313 249.376 116.272 248.571 116.49L247.15 116.874C246.712 117.005 246.274 117.151 245.836 117.296C244.976 117.596 244.132 117.926 243.294 118.287C241.608 119.032 239.978 119.9 238.418 120.883C236.802 121.916 235.273 123.079 233.848 124.362C232.339 125.734 230.973 127.255 229.77 128.901C229.466 129.312 229.209 129.755 229.002 130.222C228.289 131.857 228.254 133.708 228.905 135.368C229.555 137.029 230.839 138.363 232.473 139.077L233.172 139.384C234.75 140.063 236.385 140.603 238.057 140.997C239.516 141.373 240.898 141.619 242.258 141.849C243.617 142.08 244.946 142.264 246.267 142.425C247.588 142.587 248.893 142.71 250.199 142.817C252.802 143.048 255.383 143.163 257.956 143.24C260.528 143.316 263.047 143.316 265.72 143.193C267.804 143.104 269.771 142.205 271.202 140.688C272.633 139.17 273.414 137.153 273.38 135.068C273.346 132.982 272.499 130.992 271.02 129.522C269.54 128.051 267.545 127.217 265.459 127.196L265.451 127.204Z" fill="#FFC3BD"/>
<path d="M269.63 141.22C263.432 148.286 248.518 145.644 248.518 145.644L249.339 128.041C254.452 126.916 259.665 126.311 264.899 126.236C273.654 126.221 274.591 135.552 269.63 141.22Z" fill="#263238"/>
<path d="M253.087 135.806C252.719 138.647 252.319 142.472 252.081 147.617C248.848 163.976 247.642 175.565 250.499 184.021C252.757 186.809 282.179 186.271 287.471 185.733C290.543 178.13 290.865 156.304 291.226 137.956C291.272 135.428 290.409 132.967 288.796 131.02C287.183 129.073 284.925 127.768 282.433 127.342C275.812 126.169 269.057 125.941 262.372 126.666C260.026 126.933 257.837 127.978 256.154 129.635C254.471 131.291 253.391 133.464 253.087 135.806V135.806Z" fill="#263238"/>
<path opacity="0.2" d="M281.634 146.972C281.734 152.563 285.789 161.495 290.351 166.026C290.627 161.303 290.804 156.181 290.942 151.012L281.634 146.972Z" fill="black"/>
<path d="M307.269 157.839L307.008 157.225C305.934 154.663 304.679 152.181 303.252 149.798C301.885 147.494 300.411 145.321 298.882 143.224C297.354 141.127 295.734 139.123 294.075 137.172C293.23 136.205 292.393 135.237 291.51 134.3L290.181 132.902L288.768 131.474C287.288 130.012 285.296 129.184 283.216 129.166C281.136 129.147 279.13 129.94 277.624 131.375C276.119 132.81 275.231 134.775 275.149 136.853C275.067 138.932 275.798 140.961 277.186 142.51L277.417 142.763L281.925 147.778C283.461 149.483 284.928 151.219 286.387 152.947C287.094 153.815 287.823 154.683 288.484 155.566C289.144 156.449 289.843 157.302 290.504 158.177C291.456 159.506 292.377 160.827 293.199 162.125C293.073 162.78 292.915 163.428 292.723 164.068C292.171 165.928 291.523 167.758 290.78 169.551C290.012 171.448 289.198 173.391 288.353 175.303C287.508 177.216 286.602 179.213 285.796 181.133L285.719 181.302C285.365 182.15 285.311 183.094 285.567 183.978C285.822 184.861 286.371 185.631 287.123 186.16C287.875 186.689 288.785 186.946 289.703 186.888C290.62 186.83 291.491 186.46 292.17 185.84C293.864 184.27 295.472 182.609 296.985 180.864C298.521 179.138 299.963 177.321 301.309 175.411C301.993 174.451 302.646 173.453 303.291 172.416C303.961 171.362 304.574 170.272 305.126 169.152C305.748 167.93 306.287 166.668 306.739 165.373C307.328 163.716 307.66 161.978 307.722 160.22C307.742 159.403 307.587 158.592 307.269 157.839V157.839Z" fill="#FFC3BD"/>
<path d="M282.954 127.442C293.315 129.216 300.065 143.24 300.065 143.24L287.578 156.672C287.578 156.672 280.382 149.345 276.058 142.556C271.396 135.168 275.536 126.182 282.954 127.442Z" fill="#263238"/>
<path d="M264.031 105.331C262.295 102.42 261.727 98.4192 264.906 94.3411C264.287 94.4188 263.658 94.315 263.096 94.0424C262.535 93.7697 262.064 93.3399 261.742 92.8051C265.224 89.9567 269.602 88.4331 274.099 88.5043C283.392 88.5043 284.083 92.0909 283.768 94.5408C290.127 94.9479 294.766 111.483 278.646 114.409C269.422 104.694 264.031 105.331 264.031 105.331Z" fill="#263238"/>
<path d="M283.184 94.8402C283.184 94.8402 285.773 92.1983 282.555 89.0034C283.276 89.2012 283.934 89.5825 284.464 90.1101C284.995 90.6377 285.379 91.2936 285.581 92.014C286.034 93.8725 284.782 95.3625 283.184 94.8402Z" fill="#263238"/>
<path d="M279.621 112.389C279.375 117.481 278.915 123.272 279.767 127.334C278.446 129.416 275.067 131.812 269.015 132.349C266.865 131.128 264.023 128.141 265.014 126.605C267.587 124.954 268.677 119.954 267.94 116.214L279.621 112.389Z" fill="#FFC3BD"/>
<path opacity="0.2" d="M276.672 113.349L267.925 116.214C268.222 117.807 268.235 119.439 267.963 121.037C270.574 120.952 274.192 118.986 275.551 117.143C275.994 116.625 276.323 116.019 276.516 115.366C276.709 114.712 276.762 114.025 276.672 113.349Z" fill="black"/>
<path d="M282.171 104.325C280.55 110.569 279.921 114.309 276.096 116.928C270.344 120.868 263.109 116.452 262.825 109.855C262.579 103.911 265.267 94.6946 271.949 93.3813C273.42 93.0862 274.942 93.1722 276.371 93.6311C277.799 94.09 279.087 94.9065 280.111 96.0031C281.136 97.0996 281.862 98.4399 282.223 99.8965C282.583 101.353 282.565 102.878 282.171 104.325V104.325Z" fill="#FFC3BD"/>
<path d="M280.88 95.3857C278.139 97.3365 274.737 105.6 281.648 108.918C287.854 103.465 286.249 95.3857 280.88 95.3857Z" fill="#263238"/>
<path d="M282.462 96.3764C283.638 90.939 269.913 88.1281 265.566 94.4795C264.092 98.3041 281.633 101.683 282.462 96.3764Z" fill="#263238"/>
<path d="M272.225 110.953C270.799 110.308 269.27 109.921 267.709 109.809C267.687 109.809 267.666 109.813 267.646 109.822C267.626 109.83 267.608 109.843 267.592 109.859C267.577 109.874 267.566 109.893 267.558 109.913C267.55 109.934 267.547 109.956 267.548 109.978C267.557 110.027 267.582 110.072 267.62 110.106C267.657 110.139 267.705 110.159 267.755 110.162C269.252 110.27 270.718 110.639 272.087 111.252C272.13 111.271 272.178 111.273 272.223 111.257C272.267 111.242 272.304 111.21 272.325 111.168C272.333 111.147 272.338 111.125 272.337 111.103C272.337 111.081 272.332 111.059 272.322 111.039C272.313 111.018 272.299 111 272.283 110.986C272.266 110.971 272.246 110.96 272.225 110.953V110.953Z" fill="#263238"/>
<path d="M283.668 111.153C282.555 112.334 281.02 113.027 279.398 113.08C277.248 113.127 276.702 111.076 277.739 109.325C278.676 107.789 280.919 105.823 282.869 106.606C284.82 107.39 285.02 109.686 283.668 111.153Z" fill="#FFC3BD"/>
<path d="M272.241 104.217C272.141 104.732 271.788 105.101 271.473 105.032C271.158 104.962 270.951 104.494 271.051 103.979C271.15 103.465 271.504 103.104 271.819 103.211C272.134 103.319 272.341 103.68 272.241 104.217Z" fill="#263238"/>
<path d="M266.427 103.089C266.327 103.603 265.974 103.964 265.659 103.903C265.344 103.841 265.129 103.365 265.229 102.851C265.329 102.336 265.682 101.968 265.997 102.037C266.312 102.106 266.496 102.574 266.427 103.089Z" fill="#263238"/>
<path d="M268.224 103.68C267.303 105.134 266.186 106.454 264.906 107.605C265.674 108.626 267.372 108.426 267.372 108.426L268.224 103.68Z" fill="#ED847E"/>
<path d="M271.404 101.23C271.459 101.218 271.516 101.22 271.569 101.237C271.623 101.253 271.672 101.282 271.711 101.322C271.958 101.621 272.271 101.856 272.626 102.009C272.981 102.163 273.368 102.23 273.754 102.206C273.835 102.195 273.918 102.216 273.984 102.264C274.05 102.313 274.094 102.386 274.107 102.467C274.114 102.507 274.112 102.548 274.102 102.587C274.092 102.626 274.075 102.663 274.05 102.695C274.026 102.728 273.995 102.755 273.96 102.775C273.925 102.795 273.886 102.808 273.846 102.812C273.358 102.852 272.868 102.774 272.417 102.585C271.965 102.397 271.565 102.104 271.25 101.73C271.221 101.702 271.199 101.668 271.183 101.631C271.167 101.594 271.159 101.555 271.159 101.514C271.159 101.474 271.167 101.435 271.183 101.398C271.199 101.361 271.221 101.327 271.25 101.299C271.296 101.266 271.348 101.242 271.404 101.23V101.23Z" fill="#263238"/>
<path d="M264.63 99.525C264.566 99.5118 264.509 99.4764 264.468 99.4252C264.443 99.3932 264.423 99.3563 264.412 99.3167C264.401 99.2772 264.398 99.2357 264.403 99.1949C264.408 99.1541 264.421 99.1147 264.441 99.079C264.462 99.0434 264.489 99.0122 264.522 98.9874C264.899 98.6783 265.345 98.4634 265.822 98.3606C266.298 98.2577 266.793 98.2699 267.264 98.396C267.342 98.4224 267.406 98.4781 267.443 98.5513C267.481 98.6244 267.488 98.7093 267.464 98.7877C267.433 98.8619 267.376 98.9223 267.304 98.9576C267.232 98.9929 267.149 99.0008 267.072 98.9797V98.9797C266.697 98.884 266.304 98.8787 265.926 98.9641C265.548 99.0495 265.196 99.2233 264.899 99.4713C264.863 99.5035 264.819 99.5255 264.771 99.535C264.724 99.5444 264.675 99.541 264.63 99.525V99.525Z" fill="#263238"/>
<path d="M289.421 180.91L282.824 180.864L286.234 188.436C286.234 188.436 291.864 187.231 291.556 184.174L289.421 180.91Z" fill="#FFC3BD"/>
<path d="M279.468 186.063L280.55 188.198C280.841 188.767 281.334 189.206 281.932 189.431C282.53 189.655 283.19 189.648 283.784 189.412L286.234 188.436L282.824 180.864L280.205 182.861C279.725 183.223 279.388 183.742 279.254 184.328C279.119 184.914 279.195 185.528 279.468 186.063Z" fill="#FFC3BD"/>
<path d="M239.202 175.335C238.405 175.326 237.627 175.086 236.965 174.642C236.303 174.198 235.785 173.571 235.474 172.837C235.164 172.103 235.074 171.295 235.216 170.51C235.359 169.726 235.727 169.001 236.276 168.423C239.209 165.397 241.859 163.047 244.194 160.996C249.831 156.027 251.774 154.084 251.589 150.359C251.314 148.061 250.825 145.793 250.13 143.585C248.448 137.403 246.544 130.407 249.808 124.793C251.559 121.774 254.531 119.708 258.647 118.649C259.688 118.402 260.784 118.573 261.7 119.125C262.616 119.677 263.279 120.567 263.547 121.602C263.814 122.638 263.665 123.737 263.131 124.664C262.597 125.591 261.72 126.271 260.69 126.559C257.795 127.327 257.096 128.502 256.85 128.901C255.314 131.551 256.796 137.034 257.995 141.435C258.862 144.21 259.444 147.067 259.73 149.96C260.114 157.832 255.468 161.933 249.577 167.125C247.358 169.091 244.831 171.318 242.112 174.113C241.733 174.501 241.28 174.809 240.78 175.018C240.281 175.228 239.744 175.336 239.202 175.335V175.335Z" fill="#00A688"/>
<path d="M248.164 116.659L254.554 115.023L253.064 123.195C253.064 123.195 247.312 123.372 246.882 120.338L248.164 116.659Z" fill="#FFC3BD"/>
<path d="M259.039 119.355L258.547 121.49C258.396 122.142 258.007 122.714 257.455 123.094C256.904 123.473 256.23 123.633 255.567 123.541L253.063 123.195L254.553 115.023L257.487 116.291C258.064 116.539 258.535 116.982 258.818 117.542C259.102 118.102 259.18 118.743 259.039 119.355Z" fill="#FFC3BD"/>
<path d="M236.917 161.896L236.744 161.723C235.967 160.946 234.707 160.946 233.931 161.723L211.284 184.378C210.507 185.155 210.507 186.414 211.284 187.191L211.458 187.365C212.235 188.142 213.494 188.141 214.271 187.364L236.918 164.709C237.695 163.933 237.694 162.673 236.917 161.896Z" fill="#263238"/>
<path d="M248.72 173.685L248.546 173.511C247.769 172.734 246.51 172.734 245.733 173.511L223.082 196.162C222.305 196.939 222.305 198.198 223.082 198.975L223.256 199.149C224.033 199.925 225.292 199.925 226.069 199.149L248.72 176.498C249.497 175.721 249.497 174.461 248.72 173.685Z" fill="#263238"/>
<path d="M218.429 170.33L234.389 154.369C234.901 153.858 235.508 153.452 236.176 153.175C236.844 152.899 237.56 152.756 238.283 152.756C239.006 152.756 239.722 152.899 240.39 153.175C241.058 153.452 241.665 153.858 242.177 154.369L256.128 168.32C256.639 168.832 257.045 169.439 257.321 170.107C257.598 170.775 257.741 171.491 257.741 172.214C257.741 172.937 257.598 173.653 257.321 174.321C257.045 174.989 256.639 175.596 256.128 176.108L240.167 192.068L218.429 170.33Z" fill="#00A688"/>
<path opacity="0.7" d="M218.429 170.33L234.389 154.369C234.901 153.858 235.508 153.452 236.176 153.175C236.844 152.899 237.56 152.756 238.283 152.756C239.006 152.756 239.722 152.899 240.39 153.175C241.058 153.452 241.665 153.858 242.177 154.369L256.128 168.32C256.639 168.832 257.045 169.439 257.321 170.107C257.598 170.775 257.741 171.491 257.741 172.214C257.741 172.937 257.598 173.653 257.321 174.321C257.045 174.989 256.639 175.596 256.128 176.108L240.167 192.068L218.429 170.33Z" fill="white"/>
<path opacity="0.2" d="M223.934 164.782L218.404 170.304L240.146 192.046L245.668 186.517C245.449 185.874 245.083 185.29 244.601 184.812L225.639 165.888C225.164 165.392 224.581 165.013 223.934 164.782V164.782Z" fill="#00A688"/>
<path d="M217.472 167.519L217.075 167.916C215.39 169.601 215.39 172.334 217.075 174.02L236.435 193.38C238.121 195.065 240.854 195.065 242.539 193.38L242.936 192.983C244.621 191.298 244.621 188.565 242.936 186.879L223.576 167.519C221.89 165.834 219.157 165.834 217.472 167.519Z" fill="#00A688"/>
</svg>
